:version 1.10
:name ASF
:units
  mass 1
  length 1
  angle deg
:documentation
  ASF file generated by Kaydara
:root
  axis xyz
  order  tx ty tz rx ry rz
  position 0 0 0
  orientation 0 0 0
:bonedata
  begin
    id 1
    name RightUpLegDummy
    direction -0.718183 -0.695806 0.00816078
    length 4.904
    axis 0 0 0 xyz
  end
  begin
    id 2
    name RightUpLeg
    direction 3.53373e-006 -0.995788 0.0916898
    length 17.4976
    axis -3.49089 -0.000906625 0.000286804 xyz
    dof rx ry rz
  end
  begin
    id 3
    name RightLeg
    direction 0.00371092 -0.995096 -0.0988419
    length 16.5821
    axis 3.68512 0.0193738 -0.131023 xyz
    dof rx ry rz
  end
  begin
    id 4
    name RightFoot
    direction 0.00079151 -0.46099 0.887405
    length 3.77069
    axis 4.81691e-005 -0.120479 -0.188788 xyz
    dof rx ry rz
  end
  begin
    id 5
    name RightToes
    direction 0 0 0
    length 0
    axis 0 0 0 xyz
    dof rx ry rz
  end
  begin
    id 6
    name SpineDummy
    direction 8.3039e-015 1 4.57515e-016
    length 4.6813
    axis 0 0 0 xyz
  end
  begin
    id 7
    name Spine
    direction -3.15643e-008 0.999988 0.00495137
    length 10.1015
    axis -0.001389 0.000121418 2.40972e-006 xyz
    dof rx ry rz
  end
  begin
    id 8
    name Spine1
    direction 0 0 0
    length 0
    axis -0.001389 0.000121451 1.30017e-006 xyz
    dof rx ry rz
  end
  begin
    id 9
    name HEadDummy
    direction -1.99912e-008 0.999999 0.00127422
    length 3.43865
    axis -0.001389 0.000121451 1.30017e-006 xyz
  end
  begin
    id 10
    name HEad
    direction 0 0 0
    length 0
    axis 0 0 0 xyz
    dof rx ry rz
  end
  begin
    id 11
    name LeftShoulder1Dummy
    direction 0.998891 -0.0402509 -0.0244456
    length 3.5433
    axis -0.001389 0.000121451 1.30017e-006 xyz
  end
  begin
    id 12
    name LeftShoulder1
    direction 0.99951 -0.000327763 0.0313091
    length 4.05031
    axis -0.001389 0.000121451 1.30017e-006 xyz
    dof rx ry rz
  end
  begin
    id 13
    name LeftArm
    direction 0.998561 -0.00100056 -0.0536182
    length 10.3537
    axis -23.1894 0.134784 0.967509 xyz
    dof rx ry rz
  end
  begin
    id 14
    name LeftForeArm
    direction 0.998903 0.00866432 0.046012
    length 8.70632
    axis -9.91835 -0.06569 -0.177794 xyz
    dof rx ry rz
  end
  begin
    id 15
    name LeftHand
    direction 0 0 0
    length 0
    axis 0 0 0 xyz
    dof rx ry rz
  end
  begin
    id 16
    name RightShoulderDummy
    direction -0.998891 -0.0402509 -0.0244414
    length 3.5433
    axis -0.001389 0.000121451 1.30017e-006 xyz
  end
  begin
    id 17
    name RightShoulder
    direction -0.99951 -0.000327807 0.0313133
    length 4.05031
    axis 0.215806 0.000203643 -0.0068026 xyz
    dof rx ry rz
  end
  begin
    id 18
    name RightArm
    direction -0.998573 -0.000999564 -0.053403
    length 10.3947
    axis -23.2009 -0.134239 -0.964101 xyz
    dof rx ry rz
  end
  begin
    id 19
    name RightForeArm
    direction -0.998898 0.00868028 0.0461306
    length 8.68355
    axis -9.92322 0.0658061 0.178868 xyz
    dof rx ry rz
  end
  begin
    id 20
    name RightHand
    direction 0 0 0
    length 0
    axis 0 0 0 xyz
    dof rx ry rz
  end
  begin
    id 21
    name LeftUpLegDummy
    direction 0.718183 -0.695806 0.00816078
    length 4.904
    axis 0 0 0 xyz
  end
  begin
    id 22
    name LeftUpLeg
    direction -6.81752e-006 -0.995793 0.0916337
    length 17.4976
    axis -3.48766 0.00143442 -0.000524262 xyz
    dof rx ry rz
  end
  begin
    id 23
    name LeftLeg
    direction -0.00601358 -0.995091 -0.0987824
    length 16.5821
    axis 3.68178 -0.00654042 -0.000285133 xyz
    dof rx ry rz
  end
  begin
    id 24
    name LeftFoot
    direction -0.00417578 -0.460984 0.887399
    length 3.77069
    axis 1.87233e-006 4.66016e-005 -8.6538e-006 xyz
    dof rx ry rz
  end
  begin
    id 25
    name LeftToes
    direction 0 0 0
    length 0
    axis 0 0 0 xyz
    dof rx ry rz
  end
:hierarchy
  begin
    root RightUpLegDummy SpineDummy LeftUpLegDummy
    RightUpLegDummy RightUpLeg
    RightUpLeg RightLeg
    RightLeg RightFoot
    RightFoot RightToes
    SpineDummy Spine
    Spine Spine1
    Spine1 HEadDummy LeftShoulder1Dummy RightShoulderDummy
    HEadDummy HEad
    LeftShoulder1Dummy LeftShoulder1
    LeftShoulder1 LeftArm
    LeftArm LeftForeArm
    LeftForeArm LeftHand
    RightShoulderDummy RightShoulder
    RightShoulder RightArm
    RightArm RightForeArm
    RightForeArm RightHand
    LeftUpLegDummy LeftUpLeg
    LeftUpLeg LeftLeg
    LeftLeg LeftFoot
    LeftFoot LeftToes
  end

:SAMPLES-PER-SECOND 30
:FULLY-SPECIFIED
:DEGREES
16
root  70.9039 40.482 0.534007 -98.16 -87.85 98.4558
RightUpLeg  0.602618 -9.64116 -7.74654
RightLeg  4.75792 -7.90454 3.45455
RightFoot  -3.99607 -0.11598 1.51004
RightToes  0.000481921 0.542163 -0.142578
Spine  2.92193 0.248738 -1.66745
Spine1  -0.423066 -0.236051 3.02861
HEad  -4.05222 4.43797 -0.670498
LeftShoulder1  0.579553 -0.191676 -8.04216
LeftArm  -17.3612 8.11044 -4.0082
LeftForeArm  24.2956 -2.22415 -1.45729
LeftHand  -0.25398 0.0180481 5.50724
RightShoulder  0.222539 -1.67399 4.22983
RightArm  -25.5443 -3.81279 1.7771
RightForeArm  -9.60482 1.22836 1.95281
RightHand  -2.41126 8.73196 -20.0686
LeftUpLeg  -0.283935 4.12088 1.17308
LeftLeg  0.961492 16.0986 -4.23582
LeftFoot  -0.695983 0.0690773 -0.678403
LeftToes  1.06247e-005 4.65869e-005 -8.65512e-006
17
root  70.8948 40.4823 0.53373 -98.3471 -87.841 98.6344
RightUpLeg  0.627983 -9.65024 -7.76101
RightLeg  4.75622 -7.88574 3.45979
RightFoot  -4.03432 -0.117023 1.52622
RightToes  0.000481921 0.542163 -0.142578
Spine  2.92226 0.256814 -1.72139
Spine1  -0.409122 -0.228483 3.03195
HEad  -3.78446 4.47657 0.0952971
LeftShoulder1  0.583219 -0.193655 -8.14005
LeftArm  -17.8231 8.1721 -3.75796
LeftForeArm  24.9755 -1.76018 -1.14877
LeftHand  -0.25398 0.0180481 5.50724
RightShoulder  0.223848 -1.67486 4.20273
RightArm  -25.5415 -3.89779 1.71841
RightForeArm  -9.29183 1.24403 1.92443
RightHand  -2.47211 9.03841 -20.1396
LeftUpLeg  -0.257449 4.12856 1.17369
LeftLeg  0.956544 16.0881 -4.24654
LeftFoot  -0.708751 0.0712789 -0.712619
LeftToes  1.06247e-005 4.65869e-005 -8.65512e-006
18
root  70.8889 40.4827 0.534143 -98.8753 -87.8511 99.1528
RightUpLeg  0.648711 -9.64717 -7.75268
RightLeg  4.75472 -7.86229 3.46391
RightFoot  -4.04652 -0.116496 1.51804
RightToes  0.000481921 0.542163 -0.142578
Spine  2.95906 0.261325 -1.71545
Spine1  -0.43617 -0.20563 2.93516
HEad  -3.24535 4.4904 1.20462
LeftShoulder1  0.694677 -0.834247 -8.42961
LeftArm  -17.5889 8.84282 -2.89878
LeftForeArm  24.7734 -1.55629 -1.08633
LeftHand  -0.25398 0.0180481 5.50724
RightShoulder  0.227991 -1.7013 4.33756
RightArm  -25.6112 -3.86759 1.62516
RightForeArm  -9.11272 1.12485 1.86746
RightHand  -2.44104 8.94761 -20.0159
LeftUpLeg  -0.229768 4.14431 1.18972
LeftLeg  0.944784 16.0811 -4.25466
LeftFoot  -0.728941 0.0709181 -0.707011
LeftToes  1.06247e-005 4.65869e-005 -8.65512e-006
19
root  70.8837 40.483 0.536 -99.0873 -87.8531 99.3841
RightUpLeg  0.631517 -9.64385 -7.74678
RightLeg  4.75943 -7.85735 3.45956
RightFoot  -4.02845 -0.114102 1.48089
RightToes  0.000481921 0.542163 -0.142578
Spine  2.99828 0.25192 -1.72994
Spine1  -0.528903 -0.197601 2.84968
HEad  -3.13456 4.42181 1.5209
LeftShoulder1  0.837026 -1.64637 -8.73445
LeftArm  -16.7037 9.70997 -2.04851
LeftForeArm  23.7978 -1.90102 -1.3779
LeftHand  -0.25398 0.0180481 5.50724
RightShoulder  0.232378 -1.69966 4.48517
RightArm  -25.6109 -3.8341 1.54331
RightForeArm  -8.80422 0.998228 1.83015
RightHand  -2.37211 8.78416 -19.688
LeftUpLeg  -0.232164 4.13952 1.18048
LeftLeg  0.917295 16.1018 -4.25761
LeftFoot  -0.706523 0.0631769 -0.586702
LeftToes  1.06247e-005 4.65869e-005 -8.65512e-006
20
root  70.8769 40.4831 0.539452 -98.5475 -87.8352 98.8792
RightUpLeg  0.595613 -9.65459 -7.76553
RightLeg  4.77556 -7.87364 3.45077
RightFoot  -4.03706 -0.111225 1.43625
RightToes  0.000481921 0.542163 -0.142578
Spine  3.03772 0.242982 -1.78693
Spine1  -0.662361 -0.19631 2.80794
HEad  -3.69249 4.2462 0.694776
LeftShoulder1  0.84975 -1.73991 -8.67616
LeftArm  -16.1509 9.89229 -2.1024
LeftForeArm  23.1515 -2.34919 -1.67576
LeftHand  -0.25398 0.0180481 5.50724
RightShoulder  0.234453 -1.65751 4.64458
RightArm  -25.4561 -3.9017 1.38825
RightForeArm  -8.66574 1.04024 1.86756
RightHand  -2.34412 8.69203 -19.5864
LeftUpLeg  -0.250758 4.1126 1.14115
LeftLeg  0.887097 16.1263 -4.25971
LeftFoot  -0.667899 0.0566584 -0.4854
LeftToes  1.06247e-005 4.65869e-005 -8.65512e-006
21
root  70.8685 40.4827 0.544221 -97.9767 -87.8111 98.3271
RightUpLeg  0.581684 -9.68153 -7.80695
RightLeg  4.79808 -7.86606 3.45272
RightFoot  -4.09081 -0.111805 1.44525
RightToes  0.000481921 0.542163 -0.142578
Spine  3.10635 0.250347 -1.81023
Spine1  -0.807386 -0.168553 2.70843
HEad  -4.35327 3.98732 -0.480186
LeftShoulder1  0.741801 -1.18325 -8.2398
LeftArm  -16.3706 9.40613 -2.87956
LeftForeArm  23.4424 -2.31683 -1.67716
LeftHand  -0.25398 0.0180481 5.50724
RightShoulder  0.231052 -1.68214 4.83607
RightArm  -25.2804 -3.95122 1.22049
RightForeArm  -9.22934 1.17075 1.96159
RightHand  -2.34226 8.43283 -19.9195
LeftUpLeg  -0.248944 4.08442 1.09979
LeftLeg  0.864657 16.1417 -4.2586
LeftFoot  -0.670004 0.057725 -0.501975
LeftToes  1.06247e-005 4.65869e-005 -8.65512e-006
22
root  70.8615 40.4817 0.54897 -98.2204 -87.7892 98.5767
RightUpLeg  0.583135 -9.71298 -7.85415
RightLeg  4.82081 -7.82367 3.46631
RightFoot  -4.12877 -0.11689 1.52415
RightToes  0.000481921 0.542163 -0.142578
Spine  3.1754 0.26499 -1.77144
Spine1  -0.908736 -0.119883 2.52369
HEad  -4.47378 3.94778 -0.971663
LeftShoulder1  0.667131 -0.809498 -7.83324
LeftArm  -16.6988 9.04977 -3.47828
LeftForeArm  23.9421 -2.03916 -1.55917
LeftHand  -0.25398 0.0180481 5.50724
RightShoulder  0.220055 -1.78052 4.9252
RightArm  -25.2006 -3.92175 1.21927
RightForeArm  -9.99255 1.22292 2.03964
RightHand  -2.34432 8.22211 -20.2258
LeftUpLeg  -0.242255 4.06602 1.06641
LeftLeg  0.867766 16.1705 -4.25303
LeftFoot  -0.712071 0.0582222 -0.509701
LeftToes  1.06247e-005 4.65869e-005 -8.65512e-006
23
root  70.8575 40.4789 0.555411 -99.1021 -87.7744 99.4697
RightUpLeg  0.564304 -9.7312 -7.88367
RightLeg  4.85756 -7.8014 3.46981
RightFoot  -4.13691 -0.121197 1.59098
RightToes  0.000481921 0.542163 -0.142578
Spine  3.20755 0.283001 -1.70471
Spine1  -0.932684 -0.0661366 2.32213
HEad  -4.00979 4.26787 -0.44467
LeftShoulder1  0.666914 -0.853929 -7.65074
LeftArm  -16.6302 9.07132 -3.66743
LeftForeArm  23.9297 -2.07651 -1.59779
LeftHand  -0.25398 0.0180481 5.50724
RightShoulder  0.219924 -1.78175 4.927
RightArm  -25.1489 -3.9916 1.24572
RightForeArm  -9.69778 1.21795 2.04475
RightHand  -2.40745 8.76575 -19.999
LeftUpLeg  -0.279927 4.05901 1.04008
LeftLeg  0.946213 16.2101 -4.22994
LeftFoot  -0.793729 0.0536422 -0.438525
LeftToes  1.06247e-005 4.65869e-005 -8.65512e-006
24
root  70.8534 40.4728 0.569188 -100.123 -87.789 100.491
RightUpLeg  0.533562 -9.72748 -7.87804
RightLeg  4.93043 -7.80545 3.45162
RightFoot  -4.18789 -0.121912 1.60207
RightToes  0.000481921 0.542163 -0.142578
Spine  3.24874 0.311779 -1.58271
Spine1  -0.91719 0.00198266 2.10256
HEad  -3.35555 4.65769 0.654501
LeftShoulder1  0.658553 -0.824965 -7.54714
LeftArm  -16.4453 9.01402 -3.84513
LeftForeArm  23.6754 -2.46315 -1.75654
LeftHand  -0.25398 0.0180481 5.50724
RightShoulder  0.240771 -1.63704 5.06959
RightArm  -25.1162 -4.18094 1.02509
RightForeArm  -8.11235 1.17053 1.95015
RightHand  -2.56654 10.1459 -19.4638
LeftUpLeg  -0.360911 4.0701 1.04158
LeftLeg  1.1538 16.2282 -4.17333
LeftFoot  -0.97651 0.0550904 -0.461031
LeftToes  1.06247e-005 4.65869e-005 -8.65512e-006
25
root  70.8437 40.4641 0.594497 -100.976 -87.8444 101.307
RightUpLeg  0.546328 -9.72015 -7.86007
RightLeg  5.01789 -7.77636 3.43397
RightFoot  -4.28231 -0.124527 1.64264
RightToes  0.000481921 0.542163 -0.142578
Spine  3.31294 0.308925 -1.38525
Spine1  -0.838289 0.0373081 1.88664
HEad  -2.96818 4.87994 1.45964
LeftShoulder1  0.607909 -0.493816 -7.52941
LeftArm  -16.6523 8.74421 -3.9716
LeftForeArm  24.0443 -2.59859 -1.72085
LeftHand  -0.25398 0.0180481 5.50724
RightShoulder  0.256723 -1.53358 5.22239
RightArm  -25.2994 -4.16439 0.84044
RightForeArm  -6.59759 0.9192 1.76591
RightHand  -2.7362 11.3642 -19.2571
LeftUpLeg  -0.443983 4.08881 1.06946
LeftLeg  1.48718 16.232 -4.06794
LeftFoot  -1.27066 0.0668531 -0.643836
LeftToes  1.06247e-005 4.65869e-005 -8.65512e-006
26
root  70.8262 40.4548 0.632011 -100.376 -87.8997 100.65
RightUpLeg  0.629254 -9.75193 -7.89945
RightLeg  5.0641 -7.73744 3.44124
RightFoot  -4.32954 -0.132017 1.75885
RightToes  0.000481921 0.542163 -0.142578
Spine  3.28527 0.20337 -1.26368
Spine1  -0.562257 -0.0729822 1.88928
HEad  -3.07376 5.09503 1.3306
LeftShoulder1  0.563213 -0.126999 -7.85111
LeftArm  -17.0702 8.59895 -3.70401
LeftForeArm  24.8891 -2.26766 -1.47685
LeftHand  -0.25398 0.0180481 5.50724
RightShoulder  0.247807 -1.56024 4.90401
RightArm  -25.7705 -3.82867 1.22063
RightForeArm  -6.35306 0.511572 1.57058
RightHand  -2.79356 11.5 -19.4982
LeftUpLeg  -0.522514 4.07075 1.05247
LeftLeg  1.86577 16.2422 -3.92951
LeftFoot  -1.56153 0.0743593 -0.756847
LeftToes  1.06247e-005 4.65869e-005 -8.65512e-006
27
root  70.802 40.4464 0.683348 -96.6631 -87.9041 96.9002
RightUpLeg  0.740887 -9.84771 -8.04199
RightLeg  5.07013 -7.77246 3.46314
RightFoot  -4.34542 -0.13905 1.86797
RightToes  0.000481921 0.542163 -0.142578
Spine  3.15197 0.0348713 -1.36421
Spine1  -0.171265 -0.307458 2.21462
HEad  -3.42015 5.39836 0.518885
LeftShoulder1  0.557875 0.0326899 -8.45593
LeftArm  -17.1559 8.69722 -3.21654
LeftForeArm  25.1921 -1.98342 -1.35195
LeftHand  -0.25398 0.0180481 5.50724
RightShoulder  0.237483 -1.55576 4.27843
RightArm  -26.1843 -3.59124 1.82857
RightForeArm  -6.93167 0.377444 1.4825
RightHand  -2.74099 10.914 -19.7977
LeftUpLeg  -0.605438 3.99516 0.93608
LeftLeg  2.17731 16.2055 -3.82335
LeftFoot  -1.77459 0.0722383 -0.702674
LeftToes  1.06247e-005 4.65869e-005 -8.65512e-006
28
root  70.7703 40.4401 0.751013 -91.2913 -87.8635 91.5333
RightUpLeg  0.813298 -9.98111 -8.2486
RightLeg  5.10704 -7.81685 3.47862
RightFoot  -4.43049 -0.144779 1.95685
RightToes  0.000481921 0.542163 -0.142578
Spine  3.14755 -0.0399706 -1.51792
Spine1  -0.10772 -0.432795 2.4918
HEad  -3.40728 5.46955 -0.0996614
LeftShoulder1  0.589176 -0.0860025 -8.84337
LeftArm  -17.0322 8.92658 -2.98307
LeftForeArm  25.0315 -2.08336 -1.38096
LeftHand  -0.25398 0.0180481 5.50724
RightShoulder  0.250689 -1.44915 4.28145
RightArm  -26.1231 -3.77907 1.74163
RightForeArm  -7.56936 0.736563 1.57561
RightHand  -2.69039 10.4473 -19.991
LeftUpLeg  -0.664579 3.9118 0.777144
LeftLeg  2.3656 16.0801 -3.80469
LeftFoot  -2.00933 0.0758209 -0.736083
LeftToes  1.06247e-005 4.65869e-005 -8.65512e-006
29
root  70.7269 40.4335 0.833207 -88.7804 -87.8344 89.0691
RightUpLeg  0.805363 -10.107 -8.45025
RightLeg  5.21219 -7.69963 3.48901
RightFoot  -4.54378 -0.155824 2.12823
RightToes  0.000481921 0.542163 -0.142578
Spine  3.38729 0.0382001 -1.43479
Spine1  -0.58615 -0.307652 2.3026
HEad  -2.75536 5.19852 -0.066179
LeftShoulder1  0.645426 -0.438894 -8.81511
LeftArm  -17.1393 9.35808 -3.13638
LeftForeArm  24.7783 -2.70206 -1.38466
LeftHand  -0.25398 0.0180481 5.50724
RightShoulder  0.271471 -1.42005 5.22885
RightArm  -25.7551 -4.12251 1.08179
RightForeArm  -8.67534 1.36905 1.80912
RightHand  -2.71561 10.2376 -20.4283
LeftUpLeg  -0.705467 3.85753 0.643348
LeftLeg  2.53157 16.0123 -3.81318
LeftFoot  -2.42197 0.0925513 -0.985496
LeftToes  1.06247e-005 4.65869e-005 -8.65512e-006
30
root  70.6714 40.4199 0.927247 -92.1282 -87.8218 92.4958
RightUpLeg  0.719504 -10.2084 -8.6388
RightLeg  5.36921 -7.39864 3.48586
RightFoot  -4.61373 -0.169682 2.35288
RightToes  0.000481921 0.542163 -0.142578
Spine  3.55145 0.134596 -1.1553
Spine1  -1.03595 -0.11648 1.83841
HEad  -2.02252 4.97677 0.114831
LeftShoulder1  0.694866 -0.709114 -8.96028
LeftArm  -17.7599 10.0502 -3.49209
LeftForeArm  24.8909 -3.78632 -1.21441
LeftHand  -0.25398 0.0180481 5.50724
RightShoulder  0.276678 -1.53108 6.34648
RightArm  -25.77 -4.30574 1.11242
RightForeArm  -11.0887 2.42446 2.12076
RightHand  -2.85962 10.0747 -21.6746
LeftUpLeg  -0.809756 3.77826 0.476017
LeftLeg  2.89224 16.2377 -3.69287
LeftFoot  -3.08778 0.107142 -1.22673
LeftToes  1.06247e-005 4.65869e-005 -8.65512e-006
